# xmcd CD database file
#
# Track frame offsets:
#	150
#	17965
#	30508
#	47890
#	63319
#	74896
#	91564
#	121233
#	135377
#	148700
#	164274
#	179299
#
# Disc length: 2656 seconds
#
# Revision: 0
# Processed by: cddbd v1.5.2PL0 Copyright (c) Steve Scherf et al.
# Submitted via: CDex 1.51
#
DISCID=a40a5e0c
DTITLE=Fausto Papetti - Memory
DYEAR=2003
DGENRE=Jazz
TTITLE0=My way
TTITLE1=A summer place - Scandalo al sole
TTITLE2=Grande grande grande
TTITLE3=Senza fine
TTITLE4=L'amore e' una cosa meravigliosa
TTITLE5=Winter
TTITLE6=Samba pa ti
TTITLE7=Canzone di orfeo
TTITLE8=Con tutto l'amore che posso
TTITLE9=Memory
TTITLE10=The shadow of your smile
TTITLE11=Un uomo e una donna
EXTD=YEAR: 2003
EXTT0=
EXTT1=
EXTT2=
EXTT3=
EXTT4=
EXTT5=
EXTT6=
EXTT7=
EXTT8=
EXTT9=
EXTT10=
EXTT11=
PLAYORDER=
